<?xml version="1.0" encoding="UTF-8" standalone="no"?>
<!DOCTYPE svg PUBLIC "-//W3C//DTD SVG 1.1//EN" "http://www.w3.org/Graphics/SVG/1.1/DTD/svg11.dtd">
<svg width="100%" height="100%" viewBox="0 0 886 355" version="1.1" xmlns="http://www.w3.org/2000/svg" xmlns:xlink="http://www.w3.org/1999/xlink" xml:space="preserve" xmlns:serif="http://www.serif.com/" style="fill-rule:evenodd;clip-rule:evenodd;stroke-linejoin:round;stroke-miterlimit:2;">
    <g transform="matrix(1,0,0,1,-77,-147)">
        <g transform="matrix(1,0,0,1,-22.3005,-20.857)">
            <g transform="matrix(1,0,0,1,-69.049,-12.7196)">
                <g>
                    <g transform="matrix(0.994816,0,0,0.586427,4.07146,114.544)">
                        <path d="M165.188,331.353L165.188,181.239L205.572,181.239L205.572,185.402L179.269,189.033L179.269,323.559L205.572,327.19L205.572,331.353L165.188,331.353Z" style="fill:rgb(128,128,128);fill-rule:nonzero;"/>
                    </g>
                    <g transform="matrix(0.994816,0,0,0.586427,4.07146,114.544)">
                        <path d="M225.587,331.353L225.587,181.239L265.972,181.239L265.972,185.402L239.669,189.033L239.669,323.559L265.972,327.19L265.972,331.353L225.587,331.353Z" style="fill:rgb(128,128,128);fill-rule:nonzero;"/>
                    </g>
                    <g transform="matrix(0.994816,0,0,0.586427,4.07146,114.544)">
                        <path d="M954.28,331.353L954.28,327.19L980.583,323.559L980.583,189.033L954.28,185.402L954.28,181.239L994.665,181.239L994.665,331.353L954.28,331.353Z" style="fill:rgb(128,128,128);fill-rule:nonzero;"/>
                    </g>
                    <g transform="matrix(0.994816,0,0,0.586427,4.07146,114.544)">
                        <path d="M1014.68,331.353L1014.68,327.19L1040.98,323.559L1040.98,189.033L1014.68,185.402L1014.68,181.239L1055.06,181.239L1055.06,331.353L1014.68,331.353Z" style="fill:rgb(128,128,128);fill-rule:nonzero;"/>
                    </g>
                </g>
                <path d="M365.605,308.858L358.697,308.858L338.15,253.949L317.87,308.858L311.316,308.858L282.533,230.037L272.703,227.823L272.703,223.838L312.29,223.838L312.29,227.823L298.474,230.214L318.224,286.452L338.328,232.163L345.767,232.163L365.782,286.806L384.646,230.037L371.007,227.823L371.007,223.838L402.712,223.838L402.712,227.823L393.502,229.683L365.605,308.858Z" style="fill-rule:nonzero;"/>
                <path d="M437.075,196.649C437.075,199.247 436.13,201.491 434.241,203.38C432.351,205.269 430.078,206.214 427.421,206.214C424.824,206.214 422.58,205.269 420.691,203.38C418.801,201.491 417.857,199.247 417.857,196.649C417.857,193.992 418.801,191.719 420.691,189.83C422.58,187.94 424.824,186.996 427.421,186.996C430.078,186.996 432.351,187.94 434.241,189.83C436.13,191.719 437.075,193.992 437.075,196.649ZM436.189,300.887L450.448,303.101L450.448,307.087L407.318,307.087L407.318,303.101L421.488,300.887L421.488,230.037L409.709,227.823L409.709,223.838L436.189,223.838L436.189,300.887Z" style="fill-rule:nonzero;"/>
                <path d="M484.367,266.968L518.464,230.214L509.785,227.823L509.785,223.838L539.187,223.838L539.187,227.823L528.826,229.86L505.091,254.126L535.556,301.064L544.59,303.101L544.59,307.087L510.493,307.087L510.493,303.101L518.109,300.887L495.26,265.019L484.367,276.975L484.367,300.887L493.223,303.101L493.223,307.087L459.127,307.087L459.127,303.101L469.666,300.887L469.666,187.35L457.356,185.225L457.356,181.239L484.367,181.239L484.367,266.968Z" style="fill-rule:nonzero;"/>
                <path d="M578.155,196.649C578.155,199.247 577.21,201.491 575.321,203.38C573.432,205.269 571.158,206.214 568.502,206.214C565.904,206.214 563.66,205.269 561.771,203.38C559.881,201.491 558.937,199.247 558.937,196.649C558.937,193.992 559.881,191.719 561.771,189.83C563.66,187.94 565.904,186.996 568.502,186.996C571.158,186.996 573.432,187.94 575.321,189.83C577.21,191.719 578.155,193.992 578.155,196.649ZM577.269,300.887L591.528,303.101L591.528,307.087L548.398,307.087L548.398,303.101L562.568,300.887L562.568,230.037L550.789,227.823L550.789,223.838L577.269,223.838L577.269,300.887Z" style="fill-rule:nonzero;"/>
                <path d="M627.484,300.887L641.743,303.101L641.743,307.087L598.613,307.087L598.613,303.101L612.783,300.887L612.783,187.35L598.613,185.225L598.613,181.239L627.484,181.239L627.484,300.887Z" style="fill-rule:nonzero;"/>
                <path d="M678.939,196.649C678.939,199.247 677.994,201.491 676.105,203.38C674.216,205.269 671.943,206.214 669.286,206.214C666.688,206.214 664.444,205.269 662.555,203.38C660.666,201.491 659.721,199.247 659.721,196.649C659.721,193.992 660.666,191.719 662.555,189.83C664.444,187.94 666.688,186.996 669.286,186.996C671.943,186.996 674.216,187.94 676.105,189.83C677.994,191.719 678.939,193.992 678.939,196.649ZM678.053,300.887L692.312,303.101L692.312,307.087L649.182,307.087L649.182,303.101L663.352,300.887L663.352,230.037L651.573,227.823L651.573,223.838L678.053,223.838L678.053,300.887Z" style="fill-rule:nonzero;"/>
                <path d="M724.46,230.569C729.006,227.971 733.848,225.83 738.984,224.148C744.121,222.465 748.402,221.624 751.826,221.624C759.029,221.624 764.461,223.72 768.122,227.912C771.782,232.104 773.612,238.185 773.612,246.156L773.612,300.887L783.709,303.101L783.709,307.087L747.841,307.087L747.841,303.101L758.911,300.887L758.911,247.75C758.911,242.849 757.715,238.997 755.324,236.192C752.933,233.388 749.228,231.986 744.21,231.986C738.896,231.986 732.372,232.842 724.637,234.554L724.637,300.887L735.885,303.101L735.885,307.087L699.928,307.087L699.928,303.101L709.936,300.887L709.936,230.037L699.928,227.823L699.928,223.838L723.663,223.838L724.46,230.569Z" style="fill-rule:nonzero;"/>
                <path d="M816.919,266.968L851.016,230.214L842.337,227.823L842.337,223.838L871.74,223.838L871.74,227.823L861.378,229.86L837.643,254.126L868.109,301.064L877.142,303.101L877.142,307.087L843.045,307.087L843.045,303.101L850.662,300.887L827.813,265.019L816.919,276.975L816.919,300.887L825.776,303.101L825.776,307.087L791.679,307.087L791.679,303.101L802.218,300.887L802.218,187.35L789.908,185.225L789.908,181.239L816.919,181.239L816.919,266.968Z" style="fill-rule:nonzero;"/>
                <path d="M941.173,283.706C941.173,291.972 938.56,298.23 933.335,302.481C928.11,306.732 920.39,308.858 910.176,308.858C906.043,308.858 901.482,308.43 896.493,307.574C891.504,306.718 887.592,305.758 884.758,304.695L884.758,284.237L888.744,284.237L893.083,295.839C897.511,299.854 903.268,301.861 910.353,301.861C921.807,301.861 927.534,296.961 927.534,287.16C927.534,279.957 923.017,274.82 913.984,271.75L906.102,269.182C900.139,267.233 895.799,265.256 893.083,263.248C890.367,261.241 888.271,258.776 886.795,255.853C885.319,252.931 884.581,249.403 884.581,245.27C884.581,237.949 887.076,232.177 892.065,227.956C897.054,223.734 903.799,221.624 912.301,221.624C918.383,221.624 925.999,222.539 935.15,224.369L935.15,242.525L930.988,242.525L927.268,232.871C924.139,230.096 919.209,228.709 912.478,228.709C907.696,228.709 904.05,229.89 901.541,232.251C899.032,234.613 897.777,237.801 897.777,241.816C897.777,245.181 898.914,248.015 901.187,250.318C903.46,252.621 906.899,254.539 911.504,256.075C920.183,259.027 925.851,261.182 928.508,262.54C931.165,263.898 933.424,265.566 935.283,267.543C937.143,269.521 938.59,271.78 939.623,274.318C940.656,276.857 941.173,279.986 941.173,283.706Z" style="fill-rule:nonzero;"/>
            </g>
            <g transform="matrix(1,0,0,1,24.2996,127.032)">
                <text x="226.227px" y="343.428px" style="font-family:'Mistral', cursive;font-size:181.376px;">everywhere</text>
            </g>
            <g id="path4109" transform="matrix(0.302324,-0.259837,0.259837,0.302324,719.875,410.612)">
                <path d="M372.25,62.425C372.18,66.942 372.159,71.454 372.125,75.975L372.1,77.875L370.2,77.95C365.692,78.098 361.163,78.149 356.625,78.175C356.379,124.077 356.515,169.959 356.5,215.85L356.5,217.825L354.525,217.85C350.715,217.89 346.882,217.926 343.05,218.025L340.975,218.075L341,216C341.079,211.515 341.045,207.034 340.95,202.575C325.38,202.445 309.795,202.365 294.225,202.625C294.245,218.135 294.195,233.64 294.225,249.15C298.739,249.237 303.306,249.448 307.875,249.125L310.375,248.95L310,251.425C309.346,255.904 309.783,260.436 309.8,264.925C314.108,265.151 318.445,265.193 322.8,265.2L324.65,265.2L324.8,267.05C325.523,276.638 325.165,286.266 325.325,295.9C329.799,296.083 334.303,296.156 338.8,296.2L340.75,296.225L340.775,298.175C340.847,307.794 340.825,317.408 340.975,327.025C345.491,327.097 350.039,327.326 354.6,327.05L356.9,326.925L356.725,329.2C355.966,338.815 356.624,348.509 356.55,358.15C360.948,358.237 365.342,358.299 369.75,358.325L371.725,358.325L371.75,360.3C371.944,375.151 371.848,390.015 372.05,404.875C397.69,405.245 423.35,405.28 449,405.25C475.26,405.21 501.515,405.43 527.775,404.8C527.355,389.986 528.682,375.179 528.075,360.375L528,358.25L530.125,358.3C534.532,358.424 538.947,358.337 543.325,358.2C543.488,343.466 543.506,328.711 543.525,313.975L543.525,312.15L545.325,311.975C549.801,311.547 554.314,311.515 558.85,311.55C558.96,295.046 558.652,278.553 559.15,262.05L559.15,261.95C558.602,242.127 558.99,222.284 558.75,202.45C554.302,202.485 549.865,202.438 545.45,202.375L543.525,202.35L543.475,200.425C543.386,196.051 543.33,191.651 543.4,187.25C538.836,187.117 534.3,187.26 529.775,187L528.025,186.9L527.9,185.15C527.579,180.602 527.737,176.008 527.675,171.4C518,171.363 508.333,171.441 498.675,171.3L496.725,171.275L496.7,169.325C496.625,164.958 496.573,160.589 496.625,156.2C481.783,155.414 466.9,155.923 452.05,155.75L450.15,155.725L450.075,153.85C449.872,149.352 449.79,144.842 449.8,140.3C440.144,140.253 430.493,140.331 420.85,140.125L418.925,140.075L418.9,138.15C418.709,118.17 418.818,98.183 418.75,78.2C416.175,78.175 413.6,78.155 411.025,78.15C409.105,78.146 407.193,78.155 405.275,78.175L403.225,78.2L403.25,76.15C403.319,71.564 403.311,66.977 402.875,62.425C392.665,62.455 382.46,62.485 372.25,62.425L372.25,62.425Z" style="fill:white;fill-rule:nonzero;"/>
            </g>
            <g id="path3016" transform="matrix(0.302324,-0.259837,0.259837,0.302324,719.875,410.612)">
                <path d="M372.24,62.42C382.45,62.48 392.66,62.46 402.87,62.43C403.36,67.55 403.34,72.7 403.24,77.83C392.86,77.93 382.49,77.8 372.11,77.93C372.15,72.76 372.16,67.59 372.24,62.42Z" style="fill:rgb(28,28,28);fill-rule:nonzero;"/>
            </g>
            <g id="path3018" transform="matrix(0.302324,-0.259837,0.259837,0.302324,719.875,410.612)">
                <path d="M356.62,78.17C361.78,78.14 366.95,78.15 372.11,77.93C372.12,135.02 372.21,192.11 372.15,249.2C366.95,249.32 361.75,249.32 356.55,249.21C356.45,244.1 356.45,238.98 356.52,233.86C351.35,233.66 346.18,233.69 341.01,233.71C340.84,228.49 340.8,223.26 341,218.04C346.16,217.85 351.33,217.91 356.5,217.83C356.52,171.28 356.37,124.73 356.62,78.17Z" style="fill:rgb(28,28,28);fill-rule:nonzero;"/>
            </g>
            <g id="path3020" transform="matrix(0.302324,-0.259837,0.259837,0.302324,719.875,410.612)">
                <path d="M403.3,78.19C408.45,78.12 413.6,78.15 418.75,78.2C418.82,98.84 418.68,119.49 418.9,140.13C429.2,140.4 439.5,140.25 449.8,140.3C449.79,145.45 449.8,150.6 450.1,155.75C465.6,156 481.13,155.38 496.62,156.2C496.56,161.23 496.59,166.26 496.7,171.29C507.02,171.48 517.35,171.36 527.68,171.4C527.75,176.57 527.42,181.77 527.97,186.92C533.1,187.37 538.25,187.1 543.39,187.25C543.31,192.29 543.35,197.33 543.48,202.37C548.56,202.46 553.65,202.5 558.75,202.46C558.99,222.31 558.6,242.16 559.15,262C558.65,278.52 558.95,295.04 558.84,311.56C553.72,311.52 548.6,311.5 543.52,312.13C543.5,327.48 543.49,342.84 543.32,358.19C538.22,358.35 533.11,358.52 528.02,358.27C527.44,342.65 527.71,327.01 527.86,311.38C532.99,311.43 538.13,311.43 543.27,311.39C543.28,275.09 543.31,238.8 543.33,202.5C538.2,202.43 533.07,202.44 527.94,202.5C527.65,197.45 527.98,192.37 527.57,187.33C522.48,186.35 517.28,186.95 512.14,186.93C512.03,202.5 512.32,218.07 512.01,233.65C506.93,233.66 501.84,233.66 496.76,233.67C496.41,212.9 496.77,192.13 496.64,171.36C486.23,171.3 475.82,171.33 465.42,171.36C465.42,186.92 465.58,202.48 465.4,218.03C460.24,218.14 455.09,218.14 449.94,218.04C449.84,197.29 449.82,176.53 450.07,155.78C439.65,155.73 429.24,155.72 418.82,155.84C418.71,176.57 418.9,197.3 418.82,218.03C413.61,218.18 408.39,218.19 403.18,218.04C403.18,171.43 403.21,124.81 403.3,78.19Z" style="fill:rgb(28,28,28);fill-rule:nonzero;"/>
            </g>
            <g id="path3026" transform="matrix(0.302324,-0.259837,0.259837,0.302324,719.875,410.612)">
                <path d="M294.23,202.62C309.8,202.36 325.38,202.44 340.95,202.57C341.06,207.73 341.15,212.88 341,218.04C330.67,218.28 320.34,218.1 310.02,218.18C309.64,228.46 310.57,238.77 309.87,249.04C304.67,249.64 299.43,249.24 294.22,249.14C294.19,233.63 294.25,218.13 294.23,202.62Z" style="fill:rgb(28,28,28);fill-rule:nonzero;"/>
            </g>
            <g id="path3030" transform="matrix(0.302324,-0.259837,0.259837,0.302324,719.875,410.612)">
                <path d="M310.29,249.39C315.29,248.62 320.37,248.91 325.41,249.05C325.52,254.24 325.53,259.44 325.48,264.64C330.68,264.67 335.87,264.66 341.07,264.73C341.19,275.08 341.07,285.43 341.13,295.78C346.26,295.75 351.4,295.76 356.54,295.83C356.47,306.21 357.21,316.67 356.15,327C351.09,327.46 346.02,327.1 340.97,327.02C340.81,316.76 340.83,306.5 340.74,296.24C335.6,296.21 330.46,296.12 325.32,295.91C325.15,285.69 325.65,275.45 324.72,265.26C319.75,265.28 314.77,265.19 309.81,264.93C309.79,259.75 309.11,254.49 310.29,249.39Z" style="fill:rgb(28,28,28);fill-rule:nonzero;"/>
            </g>
            <g id="path3038" transform="matrix(0.302324,-0.259837,0.259837,0.302324,719.875,410.612)">
                <path d="M356.86,327.07C361.94,326.67 367.05,326.91 372.15,326.94C372.29,337.27 372.16,347.6 372.19,357.92C377.37,357.9 382.57,357.9 387.76,358.08C387.86,368.41 387.67,378.75 387.82,389.08C429.23,389.18 470.64,389.16 512.05,389.14C512.21,378.8 512.01,368.46 512.12,358.11C517.42,358.04 522.72,357.97 528.02,358.27C528.86,373.77 527.34,389.28 527.78,404.8C501.52,405.43 475.26,405.2 449,405.24C423.35,405.27 397.7,405.24 372.06,404.87C371.85,389.36 371.96,373.85 371.73,358.35C366.67,358.34 361.61,358.26 356.55,358.16C356.63,347.8 355.8,337.37 356.86,327.07Z" style="fill:rgb(28,28,28);fill-rule:nonzero;"/>
            </g>
        </g>
    </g>
</svg>
